<svg xmlns="http://www.w3.org/2000/svg" width="532" height="128" viewBox="0 0 532 128" role="img" aria-labelledby="title desc">
  <title id="title">周期标签＋分段条模板预览</title><desc id="desc">显示 5 小时和 7 天标签、分段进度及余量。</desc>
  <rect width="532" height="128" rx="14" fill="#f3f5f4"/><rect x="1" y="1" width="530" height="126" rx="14" fill="none" stroke="#e3e7e4"/>
  <text x="17" y="22" fill="#343a36" font-family="-apple-system,BlinkMacSystemFont,Segoe UI,sans-serif" font-size="13" font-weight="700" text-anchor="start">周期标签＋分段条</text>
  <rect x="17" y="34" width="498" height="77" rx="12" fill="#fff" stroke="#dce2de"/><rect x="30" y="47" width="472" height="51" rx="9" fill="#f6f7f6" stroke="#e4e8e5"/>
  <circle cx="49" cy="72" r="6" fill="#292e2b"/><text x="64" y="76" fill="#343a36" font-family="-apple-system,BlinkMacSystemFont,Segoe UI,sans-serif" font-size="10" font-weight="400" text-anchor="start">File</text><text x="94" y="76" fill="#343a36" font-family="-apple-system,BlinkMacSystemFont,Segoe UI,sans-serif" font-size="10" font-weight="400" text-anchor="start">Edit</text><text x="127" y="76" fill="#343a36" font-family="-apple-system,BlinkMacSystemFont,Segoe UI,sans-serif" font-size="10" font-weight="400" text-anchor="start">View</text><text x="164" y="76" fill="#343a36" font-family="-apple-system,BlinkMacSystemFont,Segoe UI,sans-serif" font-size="10" font-weight="400" text-anchor="start">Window</text><text x="211" y="76" fill="#343a36" font-family="-apple-system,BlinkMacSystemFont,Segoe UI,sans-serif" font-size="10" font-weight="400" text-anchor="start">Help</text>
  <text x="267" y="67" fill="#929a93" font-family="-apple-system,BlinkMacSystemFont,Segoe UI,sans-serif" font-size="8" font-weight="400" text-anchor="start">5h</text><text x="267" y="77" fill="#929a93" font-family="-apple-system,BlinkMacSystemFont,Segoe UI,sans-serif" font-size="8" font-weight="400" text-anchor="start">7d</text><rect x="284.00" y="64" width="11.00" height="4" rx="1" fill="#242925" opacity=".24"/><rect x="284.00" y="64" width="11.00" height="4" rx="1" fill="#242925"/><rect x="297.00" y="64" width="11.00" height="4" rx="1" fill="#242925" opacity=".24"/><rect x="297.00" y="64" width="11.00" height="4" rx="1" fill="#242925"/><rect x="310.00" y="64" width="11.00" height="4" rx="1" fill="#242925" opacity=".24"/><rect x="310.00" y="64" width="11.00" height="4" rx="1" fill="#242925"/><rect x="323.00" y="64" width="11.00" height="4" rx="1" fill="#242925" opacity=".24"/><rect x="323.00" y="64" width="7.15" height="4" rx="1" fill="#242925"/><rect x="336.00" y="64" width="11.00" height="4" rx="1" fill="#242925" opacity=".24"/><rect x="284.00" y="72" width="7.29" height="4" rx="1" fill="#242925" opacity=".24"/><rect x="284.00" y="72" width="7.29" height="4" rx="1" fill="#242925"/><rect x="293.29" y="72" width="7.29" height="4" rx="1" fill="#242925" opacity=".24"/><rect x="293.29" y="72" width="7.29" height="4" rx="1" fill="#242925"/><rect x="302.57" y="72" width="7.29" height="4" rx="1" fill="#242925" opacity=".24"/><rect x="302.57" y="72" width="7.29" height="4" rx="1" fill="#242925"/><rect x="311.86" y="72" width="7.29" height="4" rx="1" fill="#242925" opacity=".24"/><rect x="311.86" y="72" width="7.29" height="4" rx="1" fill="#242925"/><rect x="321.14" y="72" width="7.29" height="4" rx="1" fill="#242925" opacity=".24"/><rect x="321.14" y="72" width="7.29" height="4" rx="1" fill="#242925"/><rect x="330.43" y="72" width="7.29" height="4" rx="1" fill="#242925" opacity=".24"/><rect x="330.43" y="72" width="4.88" height="4" rx="1" fill="#242925"/><rect x="339.71" y="72" width="7.29" height="4" rx="1" fill="#242925" opacity=".24"/><text x="355" y="69" fill="#222925" font-family="-apple-system,BlinkMacSystemFont,Segoe UI,sans-serif" font-size="11" font-weight="700" text-anchor="start">73%</text><text x="355" y="79" fill="#222925" font-family="-apple-system,BlinkMacSystemFont,Segoe UI,sans-serif" font-size="11" font-weight="700" text-anchor="start">81%</text><text x="418" y="76" fill="#343a36" font-family="-apple-system,BlinkMacSystemFont,Segoe UI,sans-serif" font-size="10" font-weight="400" text-anchor="start">Wi-Fi</text><text x="467" y="76" fill="#343a36" font-family="-apple-system,BlinkMacSystemFont,Segoe UI,sans-serif" font-size="10" font-weight="400" text-anchor="start">9:41</text></svg>
